HIERARCHY
ROOT Hips
{
	OFFSET	0.00	0.00	0.00
	CHANNELS 6 Xposition Yposition Zposition Zrotation Xrotation Yrotation
	JOINT Spine
	{
		OFFSET	 0.00	0.01	 0.00
		CHANNELS 3 Zrotation Xrotation Yrotation
		JOINT Spine1
		{
			OFFSET	 0.00	 2.45913012437421	 0.00
			CHANNELS 3 Zrotation Xrotation Yrotation
            JOINT Neck
            {
                OFFSET	 0.00	 2.48462964506057	 0.00
                CHANNELS 3 Zrotation Xrotation Yrotation
                JOINT Head
                {
                    OFFSET	 0.00	 0.927524780924562	 0.00
                    CHANNELS 3 Zrotation Xrotation Yrotation
                    End Site 
                    {
                        OFFSET	 0.00	 1.14999962169752	 0.00
                    }
                }
            }
			JOINT LeftShoulder
			{
				OFFSET	 0.00	 2.48462964506057	 0.00
				CHANNELS 3 Zrotation Xrotation Yrotation
				JOINT LeftUpArm
				{
					OFFSET	 0.00	 1.24881979654096	 0.00
					CHANNELS 3 Zrotation Xrotation Yrotation
					JOINT LeftForeArm
					{
						OFFSET	 0.00	2.59758046908119	 0.00
						CHANNELS 3 Zrotation Xrotation Yrotation
						JOINT LeftHand
						{
							OFFSET	 0.00	2.45542024364365	 0.00
							CHANNELS 3 Zrotation Xrotation Yrotation
							JOINT LeftHandThumb 
							{
								OFFSET	 0.00	0.00	 0.00
								CHANNELS 3 Zrotation Xrotation Yrotation
								End Site
								{
									OFFSET	 0.00	0.00	1.00000003353624
								}
							}
							JOINT L_Wrist_End 
							{
								OFFSET	 0.00	0.99999967115358	 0.00
								CHANNELS 3 Zrotation Xrotation Yrotation
								End Site 
								{
									OFFSET	 0.00	 0.00	 0.00
								}
							}
						}
					}
				}
			}
			JOINT RightShoulder
			{
				OFFSET	 0.00	 2.48462964506057	 0.00
				CHANNELS 3 Zrotation Xrotation Yrotation
				JOINT RightUpArm
				{
					OFFSET	 0.00	 1.24881979654096	 0.00
					CHANNELS 3 Zrotation Xrotation Yrotation
					JOINT RightForeArm
					{
						OFFSET	 0.00	2.59758046908119	 0.00
						CHANNELS 3 Zrotation Xrotation Yrotation
						JOINT RightHand
						{
							OFFSET	 0.00	2.45542024364365	 0.00
							CHANNELS 3 Zrotation Xrotation Yrotation
							JOINT RightHandThumb 
							{
								OFFSET	 0.00	0.00	 0.00
								CHANNELS 3 Zrotation Xrotation Yrotation
								End Site
								{
									OFFSET	 0.00	0.00	1.00000003353624
								}
							}
							JOINT R_Wrist_End 
							{
								OFFSET	 0.00	0.99999967115358	 0.00
								CHANNELS 3 Zrotation Xrotation Yrotation
								End Site 
								{
									OFFSET	 0.00	 0.00	 0.00
								}
							}
						}
					}
				}
			}
		}
	}
	JOINT LeftUpLeg
	{
		OFFSET	 1.2719394002717	 0.00	 0.00
		CHANNELS 3 Zrotation Xrotation Yrotation
		JOINT LeftLowLeg
		{
			OFFSET	 0.00	-4.3429100912261	 0.00
			CHANNELS 3 Zrotation Xrotation Yrotation
			JOINT LeftFoot
			{
				OFFSET	 0.00	-4.48767017425826	 0.00
				CHANNELS 3 Zrotation Xrotation Yrotation
				JOINT LeftToeBase
                {
                    OFFSET	 0.00	0.00	 1.51507020887566
                    CHANNELS 3 Zrotation Xrotation Yrotation
                    End Site 
                    {
                        OFFSET	 0.00	0.00	 0.75000010571191
                    }
                }
			}
		}
	}
	JOINT RightUpLeg
	{
		OFFSET	 -1.2719393604653	 0.00	 0.00
		CHANNELS 3 Zrotation Xrotation Yrotation
		JOINT RightLowLeg
		{
			OFFSET	 0.00	-4.3429100912261	 0.00
			CHANNELS 3 Zrotation Xrotation Yrotation
			JOINT RightFoot
			{
				OFFSET	 0.00	-4.48767017425826	 0.00
				CHANNELS 3 Zrotation Xrotation Yrotation
				JOINT RightToeBase
                {
                    OFFSET	 0.00	0.00	 1.51507020887566
                    CHANNELS 3 Zrotation Xrotation Yrotation
                    End Site 
                    {
                        OFFSET	 0.00	0.00	 0.749999965609858
                    }
                }   
			}
		}
	}
}
MOTION 
Frames:	20 
Frame Time: 0.02 
  -0.586162986755371 18.56739990234375 9.63781982421875 169.795 80.2064 138.195 2.22661 -8.46284 -4.29269 12.7378 13.1341 -3.62316 -22.8242 29.3186 26.9488 1.83088 -40.8328 6.41341 -106.6808 -7.03804 2.05812 -33.8064 2.65841 48.9771 0.0 95.0775 0.0 -0.105537 -1.83573 -35.3194 0.0 0.0 0.0 0.0 0.0 0.0 110.764496 -6.15138 -6.55108 37.8779 -3.97742 -29.3108 0.0 21.0905 0.0 -3.23008 -4.91661 9.66304 0.0 0.0 0.0 0.0 0.0 0.0 -1.18439 -5.72752 -5.8092 0.0 18.1337 0.0 19.9999 0.39150047 0.795735 0.0 -38.6041 0.0 3.99598 -24.783 5.01012 0.0 28.8739 0.0 12.8004 11.81245 -7.71676 0.0 -29.01 0.0 
  -0.6959290313720703 18.511300048828126 9.622579956054688 167.871 80.097 140.867 2.2161 -8.6218 -4.3108 12.3754 13.0574 -3.6389 -22.5127 29.2544 26.6323 1.77319 -40.9997 6.44988 -106.5638 -7.15962 2.06123 -33.7354 2.65565 48.9308 0.0 95.0925 0.0 -0.729046 -1.91545 -28.8351 0.0 0.0 0.0 0.0 0.0 0.0 110.8035 -6.18757 -6.45392 38.0489 -4.67479 -29.719 0.0 20.915 0.0 -2.6443 -5.42598 10.3871 0.0 0.0 0.0 0.0 0.0 0.0 -1.20752 -5.35524 -6.1213 0.0 18.1218 0.0 19.9647 -0.14560032 0.479257 0.0 -38.749 0.0 3.56531 -25.1532 5.11933 0.0 24.5489 0.0 14.2831 11.52324 -6.19503 0.0 -27.757801 0.0 
  -0.808468017578125 18.456800537109373 9.606649780273438 166.503 80.0239 142.958 2.11261 -8.51959 -4.22681 12.4356 12.5905 -3.45352 -23.0666 29.3817 27.1078 1.92158 -41.2935 6.24643 -107.1068 -7.1446 4.06243 -32.9498 3.73376 47.4786 0.0 95.2892 0.0 -0.0140207 -2.22122 -30.8806 0.0 0.0 0.0 0.0 0.0 0.0 110.5971 -6.47018 -6.48337 38.3236 -5.25073 -29.8921 0.0 20.6087 0.0 -2.37069 -5.79521 11.171 0.0 0.0 0.0 0.0 0.0 0.0 -1.11306 -4.93162 -6.0572 0.0 18.1848 0.0 19.9784 -0.7918997 -0.130057 0.0 -39.063103 0.0 3.23451 -25.3441 5.02749 0.0 20.3463 0.0 13.7242 11.99925 -5.379 0.0 -28.2683 0.0 
  -0.9269280242919922 18.40010009765625 9.588250122070313 165.609 80.0599 144.523 2.06391 -8.58646 -4.15929 12.2013 12.7796 -3.40697 -22.771 29.1019 26.8964 1.76807 -41.456 6.1513 -107.0117 -6.92352 3.48078 -33.0239 3.06261 47.7668 0.0 95.413 0.0 0.485689 -2.38056 -30.1723 0.0 0.0 0.0 0.0 0.0 0.0 110.651 -6.43453 -6.23823 38.5267 -5.72799 -29.984 0.0 20.3291 0.0 -2.08301 -6.01942 11.9804 0.0 0.0 0.0 0.0 0.0 0.0 -1.04285 -4.31976 -6.19138 0.0 18.2601 0.0 19.9658 -1.3775997 -0.441984 0.0 -39.374 0.0 2.98028 -25.3937 4.70231 0.0 16.5325 0.0 13.1584 12.50027 -4.42877 0.0 -29.2824 0.0 
  -1.0487999725341797 18.344000244140624 9.568920288085938 165.072 80.1386 145.792 1.87967 -8.5559 -4.14069 12.1441 12.9573 -3.3724 -22.1305 28.8665 26.2863 1.50046 -41.6087 6.18931 -106.6556 -7.08741 1.74133 -33.5636 2.26522 49.2614 0.0 95.1819 0.0 0.635301 -2.23192 -30.5939 0.0 0.0 0.0 0.0 0.0 0.0 110.745895 -6.3995 -6.07049 38.5851 -5.97843 -30.1863 0.0 20.1559 0.0 -2.10732 -6.24741 13.5768 0.0 0.0 0.0 0.0 0.0 0.0 -0.935386 -3.66925 -6.57375 0.0 18.4181 0.0 19.9076 -1.9470005 -0.638613 0.0 -39.664 0.0 2.8131 -25.305 4.66648 0.0 13.0524 0.0 13.0566 12.70256 -3.51615 0.0 -29.276901 0.0 
  -1.1722100067138672 18.281800537109376 9.549810180664062 164.708 80.1615 146.998 1.83779 -8.55691 -4.11663 12.2244 12.9261 -3.33006 -22.2307 28.8578 26.2612 1.41481 -41.8268 5.93824 -106.9531 -7.12601 2.20451 -33.3111 2.61604 48.9073 0.0 95.1943 0.0 0.104518 -2.06763 -29.8825 0.0 0.0 0.0 0.0 0.0 0.0 110.6993 -6.37449 -6.09922 38.6598 -6.14111 -29.9608 0.0 20.0493 0.0 -0.323301 -4.5909 4.33878 0.0 0.0 0.0 0.0 0.0 0.0 -0.83986 -3.05004 -7.44215 0.0 18.6245 0.0 19.8242 -2.3754997 -0.510442 0.0 -39.928802 0.0 2.59736 -25.1244 5.09157 0.0 9.92946 0.0 13.7353 12.63666 -2.33114 0.0 -28.330101 0.0 
  -1.3020399475097657 18.221099853515625 9.529869995117188 164.387 80.1782 148.095 1.77578 -8.61725 -4.11009 12.2391 13.0143 -3.32105 -22.26 28.666 26.3364 1.39264 -41.9522 5.73792 -107.0893 -7.20822 2.11634 -33.1824 2.57002 49.0544 0.0 95.2657 0.0 0.618147 -2.17969 -30.5182 0.0 0.0 0.0 0.0 0.0 0.0 110.7548 -6.21565 -6.16484 38.6504 -6.10582 -30.0912 0.0 20.0034 0.0 -0.488571 -4.77212 4.53781 0.0 0.0 0.0 0.0 0.0 0.0 -0.66334 -2.48293 -8.00487 0.0 18.9891 0.0 19.6761 -2.8645992 -0.564523 0.0 -40.2444 0.0 2.48971 -24.995 5.61052 0.0 7.46921 0.0 13.2765 12.62207 -1.01192 0.0 -28.5228 0.0 
  -1.4352400207519531 18.159599609375 9.509869995117187 163.949 80.169 149.406 1.71204 -8.73044 -4.04648 12.2663 13.045 -3.24257 -22.1833 28.6374 26.1742 1.37092 -42.088 5.56169 -107.1995 -7.11525 2.10875 -33.0762 2.60294 49.1316 0.0 95.2757 0.0 0.814395 -2.26628 -30.2471 0.0 0.0 0.0 0.0 0.0 0.0 110.8423 -6.28628 -6.17637 38.5913 -5.82738 -30.4651 0.0 19.8166 0.0 -0.890322 -4.49372 4.96437 0.0 0.0 0.0 0.0 0.0 0.0 -0.478773 -2.0756 -8.63343 0.0 19.5894 0.0 19.5592 -3.3045998 -0.657908 0.0 -40.6938 0.0 2.39128 -24.949 6.39264 0.0 5.92925 0.0 12.2497 12.12995 -0.083556 0.0 -28.2706 0.0 
  -1.5735899353027343 18.09449951171875 9.48969970703125 163.508 80.3233 150.726 1.62245 -8.80249 -4.01747 12.1661 13.1809 -3.21399 -22.0063 28.5821 25.9255 1.32163 -42.1695 5.41568 -107.2315 -7.07318 2.0087 -32.991 2.58673 49.1075 0.0 95.2348 0.0 0.335815 -1.9144 -31.4991 0.0 0.0 0.0 0.0 0.0 0.0 110.9682 -6.1952 -6.01601 38.4693 -5.6342 -32.9216 0.0 19.4628 0.0 -3.50104 -3.16505 6.85023 0.0 0.0 0.0 0.0 0.0 0.0 -0.339094 -1.59638 -9.15817 0.0 20.3632 0.0 19.4854 -3.6413002 -0.896042 0.0 -41.3564 0.0 2.32975 -24.9267 7.4693 0.0 5.55941 0.0 11.4461 11.49203 0.0570189 0.0 -28.010601 0.0 
  -1.7186799621582032 18.0331005859375 9.471300048828125 163.079 80.5571 152.0 1.37215 -8.81185 -4.00171 12.2594 13.3055 -3.15194 -21.9732 28.6118 25.7414 1.2718 -42.3086 5.1959 -107.3798 -6.99552 2.00106 -32.8387 2.55573 49.1003 0.0 95.281 0.0 0.598834 -1.94429 -30.7822 0.0 0.0 0.0 0.0 0.0 0.0 111.1845 -6.037 -5.89669 38.301 -5.23819 -31.4021 0.0 19.5674 0.0 -2.25883 -3.95322 6.08973 0.0 0.0 0.0 0.0 0.0 0.0 -0.12179 -1.13356 -9.47625 0.0 21.2854 0.0 19.3373 -3.9267998 -1.50043 0.0 -42.1423 0.0 2.34051 -24.9473 7.6287 0.0 6.15768 0.0 11.8195 11.50666 0.384018 0.0 -28.4945 0.0 
  -1.8705799865722657 17.968900146484376 9.455349731445313 163.064 80.8451 152.822 1.14654 -8.86157 -3.99395 12.3894 13.5894 -3.12737 -22.116 28.4755 25.8261 1.28801 -42.3498 4.80935 -107.5911 -7.06334 2.03001 -32.6313 2.72422 48.9489 0.0 95.2697 0.0 0.430241 -1.80688 -31.7598 0.0 0.0 0.0 0.0 0.0 0.0 111.360596 -5.88876 -5.76855 38.1393 -4.63355 -31.0698 0.0 19.4698 0.0 -2.60644 -4.00301 6.78766 0.0 0.0 0.0 0.0 0.0 0.0 0.182252 -0.610286 -9.66914 0.0 22.2947 0.0 19.2869 -4.0949 -2.20905 0.0 -43.1361 0.0 2.59832 -24.9559 8.41642 0.0 7.75539 0.0 11.9518 12.25288 -0.348116 0.0 -27.9645 0.0 
  -2.0344500732421875 17.898199462890624 9.439660034179688 163.788 81.2176 153.024 0.963095 -8.90457 -3.93805 12.4716 13.7894 -3.05115 -21.9764 28.5632 25.528 1.30543 -42.2743 4.65898 -107.6354 -6.95625 2.07092 -32.5297 2.76685 48.9477 0.0 95.2525 0.0 0.334715 -1.61419 -32.7211 0.0 0.0 0.0 0.0 0.0 0.0 111.6487 -5.86069 -5.65759 37.9116 -4.03118 -30.8295 0.0 19.442 0.0 -3.10543 -4.02394 7.09698 0.0 0.0 0.0 0.0 0.0 0.0 0.571332 -0.011494 -10.0148 0.0 23.5029 0.0 19.3001 -4.1513004 -2.87662 0.0 -44.1357 0.0 2.95823 -24.7049 8.99276 0.0 9.59318 0.0 12.5536 14.014387 -1.45857 0.0 -28.138699 0.0 
  -2.19875 17.82760009765625 9.429550170898438 165.25 81.4724 152.458 0.994347 -9.01657 -3.95993 12.4617 13.9373 -3.10516 -21.9718 28.6822 25.4286 1.32159 -42.0385 4.63387 -107.7682 -7.05393 2.0609 -32.3908 2.76869 49.0533 0.0 95.2049 0.0 0.769997 -1.65054 -32.8621 0.0 0.0 0.0 0.0 0.0 0.0 112.0013 -5.36783 -5.81753 37.6634 -3.41797 -30.1772 0.0 19.4598 0.0 -3.38828 -3.90158 6.33699 0.0 0.0 0.0 0.0 0.0 0.0 1.06843 0.284421 -10.4539 0.0 25.1289 0.0 19.4067 -3.9622002 -3.45948 0.0 -45.324303 0.0 3.32641 -24.4272 9.71496 0.0 11.0821 0.0 15.0607 15.300471 -2.58321 0.0 -27.4929 0.0 
  -2.3623399353027343 17.7572998046875 9.427869873046875 168.298 81.6506 150.235 1.33825 -9.19506 -4.07941 12.3799 14.2527 -3.36952 -22.5572 28.6659 26.0595 1.47313 -41.7172 4.41255 -107.9103 -7.32157 1.77868 -32.3651 2.53535 48.9657 0.0 95.0338 0.0 0.583552 -1.45838 -32.4744 0.0 0.0 0.0 0.0 0.0 0.0 112.2741 -4.44846 -5.89075 37.5106 -2.75944 -29.5519 0.0 19.4922 0.0 -3.89019 -4.04069 6.28659 0.0 0.0 0.0 0.0 0.0 0.0 1.76267 0.235704 -10.7558 0.0 27.4526 0.0 18.9636 -3.6210003 -4.65472 0.0 -46.293503 0.0 3.89111 -24.1157 11.2725 0.0 12.8974 0.0 17.9094 15.940603 -3.97532 0.0 -27.9709 0.0 
  -2.525820007324219 17.6793994140625 9.43197998046875 172.284 81.8267 147.112 1.68754 -9.16715 -3.97401 12.6033 14.3567 -3.35573 -22.8239 28.688 26.1183 1.45885 -41.4923 3.93485 -108.0869 -7.3724 1.81595 -32.5058 2.57645 48.826 0.0 94.8474 0.0 0.896681 -1.38747 -34.2426 0.0 0.0 0.0 0.0 0.0 0.0 112.4236 -4.23187 -5.75747 37.3345 -1.76068 -27.9866 0.0 19.5157 0.0 -3.14909 -4.39425 4.83503 0.0 0.0 0.0 0.0 0.0 0.0 2.51826 -0.144612 -10.8087 0.0 30.3592 0.0 19.9523 -2.6662998 -5.28502 0.0 -49.0987 0.0 4.41986 -23.7835 10.8043 0.0 15.0391 0.0 18.5233 15.683637 -3.29507 0.0 -28.2588 0.0 
  -2.6843798828125 17.6056005859375 9.440969848632813 175.834 82.0044 144.161 2.11147 -9.14832 -3.71214 12.5336 14.5631 -3.2223 -22.8949 28.6268 26.0904 1.46195 -41.3162 3.60434 -108.0733 -7.42651 1.8431 -32.722 2.60269 48.5998 0.0 94.7215 0.0 0.438769 -1.17 -33.4315 0.0 0.0 0.0 0.0 0.0 0.0 112.589096 -3.92468 -5.58069 37.342 -0.600675 -27.6672 0.0 19.3945 0.0 -3.9305 -4.52713 5.46162 0.0 0.0 0.0 0.0 0.0 0.0 3.31583 -1.00975 -10.0721 0.0 33.9019 0.0 20.3866 -1.3248997 -7.32391 0.0 -52.1924 0.0 4.91975 -23.3992 9.1287 0.0 16.999 0.0 17.102 15.489515 -1.77241 0.0 -28.5646 0.0 
  -2.8448800659179687 17.532900390625 9.455050048828125 178.996 82.1867 141.932 2.25079 -9.18906 -3.65828 12.6815 14.7838 -3.23012 -22.8802 28.5608 25.952 1.42635 -41.1275 3.26132 -108.0572 -7.53216 1.93847 -32.9315 2.74151 48.6138 0.0 94.7448 0.0 1.15546 -1.26332 -33.7661 0.0 0.0 0.0 0.0 0.0 0.0 112.7556 -3.44827 -5.22956 37.2859 0.331521 -26.9201 0.0 19.4511 0.0 -4.36841 -4.50927 5.37766 0.0 0.0 0.0 0.0 0.0 0.0 4.23466 -2.43262 -9.00655 0.0 37.9594 0.0 21.0892 0.53709984 -10.0725 0.0 -55.1497 0.0 5.2941 -22.5132 7.46545 0.0 18.0613 0.0 15.2673 14.954227 -1.11331 0.0 -28.8162 0.0 
  -2.9974200439453127 17.466199951171873 9.470910034179688 -177.849 82.5208 139.571 2.25303 -8.96698 -3.49876 12.8566 14.8776 -3.0709 -22.8407 28.5989 25.7511 1.44561 -41.1291 3.0014 -107.971 -7.52833 1.94804 -33.1687 2.84393 48.5617 0.0 94.7791 0.0 0.914023 -1.0992 -34.622 0.0 0.0 0.0 0.0 0.0 0.0 112.7968 -2.95786 -5.09212 37.3311 1.40046 -25.9138 0.0 19.7216 0.0 -4.69567 -4.58816 4.96598 0.0 0.0 0.0 0.0 0.0 0.0 5.01668 -4.15606 -7.77401 0.0 42.4068 0.0 20.514 3.4266996 -13.0333 0.0 -57.9721 0.0 5.75266 -21.1573 7.22945 0.0 18.3256 0.0 14.0299 14.325614 -1.63052 0.0 -29.0364 0.0 
  -3.1485101318359376 17.399599609375 9.487780151367188 -173.646 82.6311 136.762 2.33842 -8.98219 -3.57341 13.0241 15.1176 -3.20423 -22.3884 28.8264 25.0591 1.45735 -41.4426 3.03136 -107.7555 -7.38945 2.48751 -33.3159 3.2452 48.2213 0.0 94.997 0.0 0.627433 -1.13429 -33.3796 0.0 0.0 0.0 0.0 0.0 0.0 113.1485 -1.97201 -6.2732 36.88 2.62136 -24.4197 0.0 20.6726 0.0 -6.17507 -4.06606 5.87897 0.0 0.0 0.0 0.0 0.0 0.0 5.89002 -6.39848 -7.49713 0.0 47.2177 0.0 18.5295 6.5035105 -15.9241 0.0 -57.6742 0.0 6.14289 -19.4989 5.88594 0.0 17.8648 0.0 12.984 13.70088 -1.90336 0.0 -28.489 0.0 
  -3.2838699340820314 17.343199462890624 9.497930297851562 -170.321 82.7406 134.552 2.42968 -8.72537 -3.45079 13.1063 15.1288 -3.0963 -22.0018 28.6368 24.6587 1.53535 -41.4809 2.80257 -107.6032 -7.46464 2.4197 -33.2926 3.69704 48.5187 0.0 95.2719 0.0 0.82642 -1.19303 -33.4581 0.0 0.0 0.0 0.0 0.0 0.0 113.4485 -1.90762 -6.81877 36.3816 4.77884 -23.7755 0.0 21.1608 0.0 -6.3871 -4.07639 6.54666 0.0 0.0 0.0 0.0 0.0 0.0 6.40892 -8.89969 -7.34814 0.0 52.1836 0.0 16.5421 9.49295 -17.6612 0.0 -55.4165 0.0 6.62183 -18.224 5.70274 0.0 17.8545 0.0 12.5874 12.7425995 -2.67157 0.0 -27.907799 0.0 
